<?xml version="1.0" encoding="utf-8"?>
<!-- Generator: Adobe Illustrator 23.0.1, SVG Export Plug-In . SVG Version: 6.00 Build 0)  -->
<svg version="1.1" id="Camada_1" xmlns="http://www.w3.org/2000/svg" xmlns:xlink="http://www.w3.org/1999/xlink" x="0px" y="0px"
	 viewBox="0 0 116 116" style="enable-background:new 0 0 116 116;" xml:space="preserve">
<style type="text/css">
	.st0{display:none;fill:#055D84;}
	.st1{opacity:0.2;fill-rule:evenodd;clip-rule:evenodd;fill:#ABB6B7;enable-background:new    ;}
	.st2{fill-rule:evenodd;clip-rule:evenodd;fill:#6ad7ff;}
	.st3{clip-path:url(#SVGID_2_);}
	.st4{fill:#253547;}
	.st5{fill:#FFFFFF;}
	.st6{fill:#DEECED;}
	.st7{fill:#231F20;}
	.st8{fill:#B9E1EA;}
	.st9{fill:#FF6969;}
	.st10{fill:#BC5050;}
	.st11{opacity:0.5;fill:none;stroke:#C1E0EF;stroke-width:9;stroke-linecap:round;stroke-miterlimit:10;enable-background:new    ;}
	.st12{fill:#A1A6A5;}
	.st13{fill:#818483;}
	.st14{fill:#BDC1C0;}
	.st15{opacity:0.4;fill:#FFFFFF;}
	.st16{fill:#58C2DB;}
</style>
<rect class="st0" width="116" height="116"/>
<g id="BG">
	<path class="st1" d="M58.4,0c32,0.3,57.7,26.6,57.4,58.6c-0.3,32-26.6,57.7-58.6,57.4c-32-0.3-57.7-26.6-57.4-58.6
		C0.1,25.4,26.4-0.3,58.4,0z"/>
	<path class="st2" d="M58.3,9c27.1,0.3,48.8,22.5,48.5,49.5c-0.3,27.1-22.5,48.8-49.5,48.5C30.2,106.7,8.5,84.5,8.8,57.5
		C9.1,30.4,31.3,8.7,58.3,9z"/>
</g>
<g id="ICON-GROUP">
	<g>
		<defs>
			<path id="SVGID_1_" d="M41.2,101.6C15.6,92.4,2.6,64.9,12.1,40.1S50.2,2.8,75.8,12s38.6,36.7,29.1,61.5S66.8,110.8,41.2,101.6z"
				/>
		</defs>
		<clipPath id="SVGID_2_">
			<use xlink:href="#SVGID_1_"  style="overflow:visible;"/>
		</clipPath>
		<g id="ICONS" class="st3">
			<g>			
                    <animateTransform  
                        accumulate="none" 
                        additive="replace" 
                        attributeName="transform" 
                        attributeType="XML" 
                        begin="0s; next.end" 
                        calcMode="spline" 
                        dur="0.7s" 
                        fill="remove" 
                        from="0,0" 
                        id="left1" 
                        keySplines=".25,.1,.25,1" 
                        keyTimes="0;1" 
                        restart="always" 
                        to="-95, 0"
                        type="translate">
					</animateTransform>

					<animateTransform  
                        accumulate="none" 
                        additive="replace" 
                        attributeName="transform" 
                        attributeType="XML" 
                        begin="left1.end" 
                        calcMode="spline" 
                        dur="0.7s" 
                        fill="remove" 
                        from="-95, 0" 
                        id="left2" 
                        keySplines=".25,.1,.25,1" 
                        keyTimes="0;1" 
                        restart="always" 
                        to="-205, 0" 
                        type="translate">
					</animateTransform>

                    <animateTransform  
                        accumulate="none" 
                        additive="replace" 
                        attributeName="transform" 
                        attributeType="XML" 
                        begin="left2.end" 
                        calcMode="spline" 
                        dur="0.7s" 
                        fill="remove" 
                        from="-205, 0" 
                        id="left3" 
                        keySplines=".25,.1,.25,1" 
                        keyTimes="0;1" 
                        restart="always" 
                        to="-240, 0" 
                        type="translate">
					</animateTransform>				
               
					<animateTransform  
                        accumulate="none" 
                        additive="replace" 
                        attributeName="transform" 
                        attributeType="XML" 
                        begin="left2.end" 
                        calcMode="spline" 
                        dur="0.7s" 
                        fill="remove" 
                        from="-205, 0" 
                        id="next" 
                        keySplines=".25,.1,.25,1" 
                        keyTimes="0;1" 
                        restart="always" 
                        to="-315, 2" 
                        type="translate">
					</animateTransform> 
				<g>
					<ellipse class="st4" cx="57.4" cy="79.9" rx="18.8" ry="2.8"/>
					<g>
						<path class="st5" d="M80,22.5c-0.9-0.1-2,0.2-1.6,1.5c0.3,0.8-0.3,1.4-0.2,2.3c0.1,0.5,0.1,0.7,0,1.2
							c-0.1,0.4-0.2,0.8-0.1,1.2c0.1,0.5,0.2,0.7,0,1.1c-0.2,0.4-0.3,0.7-0.3,1.1c0,0.4,0.2,0.9,0.2,1.3c-0.1,0.4-0.3,0.7-0.2,1.2
							c0.1,1,1.2,1.2,2,1.1c2.5-0.3,3.6,0,5.2,0.1l0-11.7C83.3,22.8,81.6,22.7,80,22.5z"/>
						<path class="st6" d="M81.7,23.3c-0.6,0-2.6-0.3-2.1,0.7c-0.3,0.1-0.3,0.4-0.1,0.5c-0.3,0.1-0.3,0.5,0,0.7
							c0.2,0.1,2.3,0.5,3,0.5c-0.6,0.1-3.4-0.4-3.3,0.8c0,0.3,0.1,0.4,0,0.8c-0.1,0.3-0.1,0.5-0.1,0.8c0,0.3,0,0.4-0.1,0.7
							c-0.1,0.6,0.5,0.5,0.6,0.5c-0.2,0.1-0.5,0.1-0.6,0.3c-0.1,0.3,0,0.7-0.1,1c-0.1,0.3-0.2,0.8,0.1,1c0.3,0.2,2.1,0.2,2.4,0.3
							c-0.7,0.4-3,0.1-3,1.1c0,0.1,0,0.7,0.1,0.8c0.1,0.2,0.5,0.3,0.8,0.3c0.6,0,5.3,0.2,5.4,0.5l-0.3-11
							C83.6,23.3,82.6,23.3,81.7,23.3z"/>
						<g>
							<path class="st7" d="M70.8,55.1c0.9,0.7,2,0.9,3,1c1,0.1,2.1,0.1,3.1-0.1c1-0.2,2.1-0.5,3-1c1-0.5,1.9-1.1,2.6-2
								c0.4-0.5-0.4-1-0.8-0.5c-0.6,0.7-1.4,1.2-2.2,1.6c-0.8,0.4-1.7,0.7-2.7,0.9c-0.9,0.2-1.8,0.2-2.7,0.1c-1-0.1-2-0.3-2.7-0.9
								C70.8,53.9,70.3,54.8,70.8,55.1L70.8,55.1z"/>
						</g>
						<g>
							<path class="st7" d="M37.9,64.7c0-1.5-0.1-3.1,0.3-4.6c0.4-1.5,1.2-2.8,2.5-3.6c0.5-0.4,0-1.2-0.5-0.8
								c-1.4,1-2.5,2.4-2.9,4.1c-0.4,1.6-0.4,3.3-0.4,5C36.9,65.3,37.9,65.3,37.9,64.7L37.9,64.7z"/>
						</g>
						<path class="st6" d="M48.5,80c-2.4-0.1-4.5-0.5-5.8-4.5c-0.9-2.8-0.6-6-0.9-8.1c-0.3-2.1-2.8-8.5-3.1-13.7
							c-0.3-5.2,2.9-10.5,8.1-10.9c5.2-0.3,7.3,1.5,10,1.6c3.5,0.1,6.2-2,10.9-1.8c4.6,0.2,6.9,5.3,7.1,10.6
							C75,58,72.1,65,72.2,67.3c0.1,3.5-0.1,12.3-4,12.3c-4.5,0-5.5-6.4-6.8-7.7c-2.4-2.3-4.4-2.5-6.5-0.4
							C52.4,74,52.3,80.1,48.5,80z"/>
						<path class="st5" d="M49.7,45.3c-1.8-0.5-3.3,0.1-4.6,1.1c-1,0.6-2,1.7-2.4,2.5c-1,1.8-1.7,4.3-0.7,6.3
							c0.9,1.7,2.9,1.6,3.6-0.1c0.6-1.6,0.1-3.3,1.1-4.8c1-1.4,2.4-1.4,3.7-2.3C51.9,46.9,51.1,45.7,49.7,45.3z"/>
						<path class="st8" d="M74.8,53.2c-0.2-4.9-2.1-9.5-5.9-10.5c6.9,2.8,4.7,14,1.4,18.6c-0.9,1.3-2.3,1.5-4.1,2.8
							c-1.6,1.1,2.4,1.2,3.7,4.9c0.8,2.2,1.7,7.6-1.4,8.6c-1,0.3-2.4,0.4-3.4-0.1c-0.6-0.3-1.4-1-1.9-1.8c1,2,2.4,3.9,4.9,3.9
							c3.9,0,4.1-8.9,4-12.3C72.1,65,75,58,74.8,53.2z"/>
						<path class="st7" d="M52,52.5c0,0.6-0.5,1.1-1.1,1.1c-0.6,0-1.1-0.5-1.1-1.1c0-0.6,0.5-1.1,1.1-1.1C51.5,51.4,52,51.9,52,52.5
							z"/>
						<path class="st7" d="M67,50.8c0,0.6-0.5,1.1-1.1,1.1c-0.6,0-1.1-0.5-1.1-1.1c0-0.6,0.5-1.1,1.1-1.1C66.5,49.7,67,50.2,67,50.8
							z"/>
						<g>
							<path class="st7" d="M60.6,61.1c0,0-0.1,0-0.1,0c-1.9,0.1-3-0.7-3.7-1.4c-0.7-0.8-1-1.6-1-1.6c0-0.2,0-0.3,0.2-0.4
								c0.1-0.1,0.3,0,0.3,0.2c0,0.1,1,2.9,4.1,2.6c1.3-0.1,2-0.8,2.4-1.3c0.6-0.8,0.8-1.8,0.7-2.4c0-0.2,0.1-0.3,0.2-0.3
								c0.1,0,0.3,0.1,0.3,0.3c0.1,0.9-0.2,2-0.8,2.8C62.8,60.2,62,61,60.6,61.1z"/>
						</g>
						<path class="st7" d="M67,46.8c-0.5-0.4-1.6-0.8-2.3-0.5c-0.3,0.1-0.4,0.5,0,0.7c0.4,0.3,0.8,0,1.8,0.6
							c0.4,0.2,0.8,0.6,1.1,0.1C67.7,47.4,67.3,47.1,67,46.8z"/>
						<path class="st7" d="M47.4,48.8c0.4-0.5,1.5-1.1,2.2-0.8c0.3,0.1,0.4,0.4,0.1,0.7c-0.4,0.4-0.7,0.1-1.7,0.9
							c-0.3,0.3-0.7,0.7-1,0.2C46.7,49.5,47.1,49.1,47.4,48.8z"/>
						<path class="st7" d="M84.4,49.9c-1.1-0.8-1.8,0.3-2.2,1.2c0-0.3-0.1-0.8-0.5-0.8c-0.4,0-0.4,0.6-0.4,0.9
							c0,0.7,0.1,1.5-0.5,2.1L80,54.5c1.2-0.8,2.6-0.9,3.7-1.7C84.5,52.1,85.6,50.7,84.4,49.9z"/>
						<path class="st7" d="M38.9,68.2c1.2-0.6,0.6-1.8,0-2.5c0.3,0.1,0.7,0.3,0.9-0.1c0.2-0.3-0.3-0.6-0.5-0.8
							c-0.7-0.3-1.3-0.7-1.6-1.4L37,62.1c0.1,1.4-0.4,2.7-0.3,4.1C36.9,67.2,37.6,68.9,38.9,68.2z"/>
						<path class="st9" d="M82.7,80.9c0,0-0.1,0.8-1.2,0.7c-0.8-0.1-1.1-0.8-1.1-0.8L84,23.6c0,0-0.1-1.4,1.2-1.4c0.9,0,1,1.5,1,1.5
							L82.7,80.9z"/>
						<path class="st10" d="M85.2,22.3c-0.1,0-0.2,0-0.2,0c0.5,0.4,0.6,1.3,0.6,1.3l-3.5,57.1c0,0-0.1,0.7-0.9,0.7
							c0.1,0.1,0.3,0.1,0.4,0.1c1,0.1,1.2-0.7,1.2-0.7l3.5-57.1C86.2,23.8,86.1,22.3,85.2,22.3z"/>
					</g>
				</g>
                <g>
	<ellipse class="st4" cx="162.4" cy="78.3" rx="18.9" ry="2.8"/>
	<g>
		<g>
			<g>
				<path class="st12" d="M174.9,28.2c-1.3-1.6-3.3-0.3-3.3-0.3l-38.2,31.4l2.9,3.5l38.2-31.4C174.5,31.4,176.2,29.8,174.9,28.2z"/>
				<path class="st13" d="M174.9,28.2c0-0.1-0.1-0.1-0.2-0.2c0.4,1.4-0.8,2.6-0.8,2.6l-38.2,31.4l-2.3-2.8l-0.1,0.1l2.9,3.5
					l38.2-31.4C174.5,31.4,176.2,29.8,174.9,28.2z"/>
				<polygon class="st13" points="133.1,61.5 129,64.8 130,66.4 134.3,62.7 				"/>
				<path class="st13" d="M129.2,64.4c2.5,2.8,5.5,7.7,3.5,10.1c-2.9,3.5-8.2,2.1-11.7-1.4c-3-3.1-4.8-8.1-1.5-11
					C122.9,59.1,127.1,62,129.2,64.4z"/>
				<path class="st12" d="M130.2,63.9c2.5,2.8,5,7.8,3,10.2c-2.8,3.5-7.7,2-11.2-1.5c-3-3.1-4.8-8.1-1.5-11
					C122.7,59.5,128,61.5,130.2,63.9z"/>
				<path class="st14" d="M129.6,64.3c2.3,2.6,4.6,7,2.8,9.2c-2.6,3.2-6.8,1.7-9.9-1.5c-2.7-2.8-4.5-7.2-1.6-9.9
					C123,60.3,127.6,62.2,129.6,64.3z"/>
				<polygon class="st15" points="121.7,71.1 124.2,61.5 124.6,61.6 122.8,72.3 121.7,71.1 				"/>
				<path class="st15" d="M127.2,62.5l-1.6,11.8c0,0,0.5,0.4,1.6,0.7c1,0.2,2,0.3,2,0.3L128,63L127.2,62.5L127.2,62.5z"/>
				<polygon class="st12" points="130.6,63.8 132.5,62.5 132.9,63 130.9,64.3 				"/>
				<path class="st14" d="M173,28c-0.7-0.3-1.3,0.3-1.8,0.8c-0.3,0.3-0.7,0.7-1,1c0,0,0,0-0.1,0.1c-0.4,0.4-0.9,0.7-1.3,1.2
					c-0.6,0.6-1.1,1.2-1.7,1.7c-0.8,0.7-1.9,1.3-2.7,2.1c-0.3,0.3-2.2,1.9-1.3,2.3c0.8,0.3,2-1.2,2.5-1.7c1.7-1.7,3.6-3.3,5.6-4.8
					C171.8,30.2,174.8,28.8,173,28z"/>
			</g>
			<path class="st13" d="M133.4,59.3c0,0-1.6,1.6-0.4,3.3c1.2,1.7,3.3,0.2,3.3,0.2L133.4,59.3L133.4,59.3z"/>
		</g>
		<g>
			<path class="st7" d="M143.4,64.4c-0.3-1.5-0.6-3-0.5-4.6c0.1-1.6,0.7-3,1.9-4.1c0.4-0.4-0.2-1.2-0.6-0.8c-1.3,1.3-2,2.8-2.2,4.6
				c-0.2,1.7,0.2,3.4,0.5,5C142.6,65.2,143.6,65,143.4,64.4L143.4,64.4z"/>
		</g>
		<path class="st6" d="M153.6,78.4c-2.4,0-4.6-0.3-6.1-4.3c-1-2.7-0.9-6-1.3-8.1c-0.4-2.1-3.2-8.5-3.7-13.7
			c-0.5-5.2,2.5-10.8,7.7-11.3c5.2-0.6,7.4,1.2,10.2,1.1c3.5,0,6.2-2.3,10.9-2.3c4.7,0,7.2,5,7.6,10.4c0.4,4.8-2.2,12-2,14.4
			c0.3,3.5,0.4,12.4-3.5,12.6c-4.6,0.2-5.8-6.2-7.2-7.5c-2.5-2.2-4.6-2.4-6.6-0.1C157.3,72.2,157.5,78.4,153.6,78.4z"/>
		<path class="st5" d="M153.3,43.4c-1.9-0.4-3.4,0.2-4.6,1.3c-1,0.6-2,1.8-2.4,2.6c-1,1.9-1.5,4.4-0.4,6.3c0.9,1.6,3,1.5,3.6-0.3
			c0.5-1.6-0.1-3.3,0.9-4.8c0.9-1.5,2.3-1.5,3.7-2.5C155.6,44.9,154.7,43.7,153.3,43.4z"/>
		<path class="st8" d="M179,50.3c-0.4-4.9-2.5-9.5-6.4-10.3c7.1,2.6,5.4,13.9,2.3,18.7c-0.9,1.3-2.3,1.7-4,3
			c-1.6,1.2,2.5,1.1,3.9,4.8c0.9,2.2,2.1,7.6-1,8.7c-1,0.4-2.4,0.5-3.4,0.1c-0.6-0.2-1.5-0.9-2-1.8c1.1,1.9,2.6,3.9,5.1,3.8
			c3.9-0.2,3.7-9.1,3.5-12.6C176.8,62.2,179.4,55.1,179,50.3z"/>
		<path class="st7" d="M149.8,52.2c0,0.6-0.5,1.2-1.1,1.2c-0.6,0-1.2-0.5-1.2-1.1c0-0.6,0.5-1.2,1.1-1.2
			C149.3,51.1,149.8,51.6,149.8,52.2z"/>
		<path class="st7" d="M165.6,51.5c0,0.6-0.5,1.2-1.1,1.2c-0.6,0-1.2-0.5-1.2-1.1c0-0.6,0.5-1.2,1.1-1.2
			C165,50.4,165.5,50.9,165.6,51.5z"/>
		<g>
			<path class="st7" d="M156.2,60.3c0,0-0.1,0-0.1,0c-1.8,0-2.9-0.9-3.5-1.6c-0.6-0.8-0.9-1.7-0.9-1.7c0-0.2,0-0.3,0.2-0.4
				c0.1,0,0.3,0.1,0.3,0.2c0,0.1,0.8,3,3.9,2.9c1.2,0,2-0.6,2.4-1.2c0.7-0.8,0.9-1.8,0.8-2.4c0-0.2,0.1-0.3,0.2-0.3
				c0.1,0,0.3,0.1,0.3,0.3c0,0.9-0.3,2-1,2.8C158.4,59.5,157.6,60.2,156.2,60.3z"/>
		</g>
		<path class="st7" d="M169.3,45.3c-0.4-0.5-1.4-1.2-2.2-1c-0.3,0.1-0.5,0.4-0.2,0.7c0.4,0.4,0.7,0.2,1.6,1c0.3,0.3,0.6,0.8,1,0.3
			C169.9,46,169.6,45.6,169.3,45.3z"/>
		<path class="st7" d="M148.6,46.2c0.4-0.5,1.5-1.1,2.2-0.9c0.3,0.1,0.5,0.4,0.1,0.7c-0.4,0.4-0.7,0.1-1.7,1c-0.3,0.3-0.7,0.7-1,0.3
			C148,46.8,148.4,46.5,148.6,46.2z"/>
		<path class="st7" d="M145.1,67.7c1.1-0.8,0.3-1.9-0.5-2.5c0.3,0.1,0.8,0.2,0.9-0.2c0.1-0.4-0.4-0.6-0.7-0.7
			c-0.7-0.2-1.5-0.4-1.9-1.1l-0.8-1.3c0.4,1.4,0.1,2.8,0.5,4.1C142.9,67,143.9,68.6,145.1,67.7z"/>
		<g>
			<path class="st7" d="M175.7,52.9c1.1-0.1,2.2,0.2,3.1,0.7c0.9,0.4,1.8,1,2.6,1.7c0.8,0.7,1.5,1.5,2,2.4c0.6,0.9,1,1.9,1.2,3
				c0.1,0.6-0.9,0.7-1,0c-0.1-0.9-0.5-1.8-1-2.5c-0.5-0.8-1.1-1.6-1.8-2.2c-0.7-0.6-1.5-1.1-2.3-1.5c-0.9-0.5-1.8-0.8-2.8-0.7
				C175.1,54,175.1,53,175.7,52.9L175.7,52.9z"/>
		</g>
		<path class="st7" d="M184.7,64.6c-1.3,0.1-1.4-1.2-1.2-2.2c-0.2,0.3-0.5,0.6-0.8,0.4c-0.3-0.2-0.1-0.7,0.1-1
			c0.4-0.6,0.8-1.3,0.7-2.1l-0.2-1.5c0.6,1.3,1.7,2.2,2.3,3.5C186,62.7,186.2,64.5,184.7,64.6z"/>
	</g>
</g>
<g>
	<ellipse class="st4" cx="266" cy="78.8" rx="18.9" ry="2.8"/>
	<g>
		<g>
			<path class="st7" d="M286.8,60.4c-0.8-1.3-1.6-2.6-2.7-3.7c-1.1-1.1-2.6-1.6-4.1-1.7c-0.6,0-0.7-1,0-1c1.8,0.1,3.4,0.6,4.7,1.8
				c1.3,1.1,2.2,2.6,3,4C288,60.5,287.1,61,286.8,60.4L286.8,60.4z"/>
		</g>
		<path class="st7" d="M287.9,64c-1.3,0.2-1.5-1.2-1.3-2.1c-0.2,0.3-0.4,0.6-0.8,0.4c-0.3-0.2-0.1-0.7,0-1c0.4-0.6,0.8-1.3,0.6-2.1
			l-0.3-1.5c0.7,1.2,1.8,2.1,2.5,3.3C289,62,289.4,63.8,287.9,64z"/>
		<g>
			<path class="st7" d="M243.3,62.8c0.5-1.4,1-2.9,1.9-4.2c0.9-1.3,2.2-2.1,3.7-2.5c0.6-0.1,0.5-1.1-0.2-1c-1.7,0.4-3.2,1.3-4.2,2.7
				c-1,1.3-1.6,3-2.1,4.5C242.1,63.1,243.1,63.4,243.3,62.8L243.3,62.8z"/>
		</g>
		<path class="st6" d="M256,80c-2.4-0.1-4.5-0.5-5.8-4.6c-0.9-2.8-0.6-6-0.9-8.1c-0.3-2.1-2.8-8.6-3.1-13.8s2.9-10.6,8.1-10.9
			c5.2-0.3,7.3,1.5,10.1,1.6c3.5,0.1,6.2-2,11-1.8c4.6,0.2,6.9,5.3,7.1,10.7c0.2,4.8-2.7,11.8-2.6,14.2c0.1,3.5-0.1,12.4-4,12.4
			c-4.5,0-5.5-6.5-6.8-7.7c-2.4-2.3-4.4-2.5-6.5-0.4C260,74,259.8,80.2,256,80z"/>
		<path class="st5" d="M257.2,45.2c-1.8-0.5-3.3,0.1-4.6,1.1c-1.1,0.6-2,1.7-2.5,2.5c-1,1.8-1.7,4.3-0.7,6.3c0.9,1.7,3,1.7,3.6-0.1
			c0.6-1.6,0.1-3.3,1.1-4.8c1-1.4,2.4-1.4,3.7-2.3C259.4,46.8,258.6,45.6,257.2,45.2z"/>
		<path class="st8" d="M282.4,53.2c-0.2-4.9-2.1-9.6-5.9-10.5c7,2.9,4.8,14,1.5,18.7c-0.9,1.3-2.3,1.5-4.1,2.8
			c-1.6,1.2,2.4,1.2,3.7,5c0.8,2.2,1.7,7.7-1.4,8.6c-1,0.3-2.4,0.4-3.4-0.1c-0.6-0.3-1.4-1-1.9-1.8c1,2,2.4,3.9,4.9,3.9
			c3.9,0,4.1-8.9,4-12.4C279.7,65,282.6,57.9,282.4,53.2z"/>
		<path class="st7" d="M257.7,51.6c0,0.6-0.5,1.1-1.1,1.1c-0.6,0-1.1-0.5-1.1-1.1c0-0.6,0.5-1.1,1.1-1.1
			C257.2,50.4,257.7,50.9,257.7,51.6z"/>
		<circle class="st7" cx="272.6" cy="51.6" r="1.1"/>
		<path class="st7" d="M274.3,48.6c-0.5-0.4-1.6-0.9-2.3-0.6c-0.3,0.1-0.4,0.5-0.1,0.7c0.4,0.3,0.8,0.1,1.8,0.7
			c0.4,0.2,0.8,0.6,1.1,0.1C275,49.2,274.6,48.9,274.3,48.6z"/>
		<path class="st7" d="M254.9,48.7c0.5-0.5,1.6-1,2.3-0.7c0.3,0.1,0.4,0.4,0.1,0.7c-0.4,0.4-0.7,0.1-1.8,0.8c-0.3,0.3-0.7,0.7-1,0.2
			C254.2,49.3,254.6,49,254.9,48.7z"/>
		<path class="st7" d="M242.9,66.5c1.3-0.1,1.2-1.4,0.9-2.3c0.2,0.2,0.6,0.5,0.9,0.3c0.3-0.3,0-0.7-0.2-0.9c-0.5-0.6-1-1.1-1-1.9
			l0-1.5c-0.4,1.3-1.4,2.4-1.7,3.7C241.4,64.8,241.5,66.7,242.9,66.5z"/>
		<g>
			<path class="st5" d="M246.8,27.8c0,0-6.7,9.2,3.8,13.8c3.3,1.4,24.3-0.5,28.5,0.9c4,1.3,4.5,4.5,4.5,4.5s2.6-10.7-7-13.5
				c-9.7-2.8-17.8-0.8-22.9-1.2C245.6,31.7,246.8,27.8,246.8,27.8z"/>
			<path class="st9" d="M283.5,46.9c0.8-2.2,1.5-11-7-13.5c-9.7-2.8-17.8-0.8-22.9-1.2c-8-0.6-6.8-4.4-6.8-4.4
				c-0.4,0.9,0,2.7,0.2,3.6c0.5,1.9,1.5,2.9,3.5,3.4c3.8,0.9,8.4,0.4,12.3,0.3c3.8-0.1,7.6-0.1,11.2,0.5c2.7,0.5,6.1,1.2,7.8,3.6
				c0.9,1.3,1.4,2.5,1.7,4C283.6,43.7,283.6,45.8,283.5,46.9z"/>
			<path class="st16" d="M279,42.5c4,1.3,4.5,4.6,4.5,4.6s0-0.1,0-0.1c0.1-0.9-0.2-2-0.5-2.8c-0.3-0.9-1.1-1.8-1.8-2.4
				c-2.1-1.8-4.3-2.3-7.5-2.4c-2.4-0.1-13.6,0.7-16.8,0.5c-3.6-0.3-8.5-1.2-10.1-4.9c-0.6-1.4-0.7-2.7-0.7-4.3
				c0-0.6,0.1-1.1,0.2-1.7c0.1-0.4,0.3-0.7,0.4-1.1c0,0,0.1-0.1,0.1-0.1s-6.8,9.3,3.7,13.8C253.8,43.1,274.8,41.2,279,42.5z"/>
		</g>
		<path class="st7" d="M266.1,59.4c0,0.9-0.5,1.5-1.1,1.5c-0.6,0-1.1-0.7-1.1-1.5s0.5-1.5,1.1-1.5C265.6,57.9,266.1,58.6,266.1,59.4
			z"/>
		<path class="st5" d="M256.9,51c0,0.2-0.2,0.4-0.4,0.4s-0.4-0.2-0.4-0.4c0-0.2,0.2-0.4,0.4-0.4S256.9,50.8,256.9,51z"/>
		<path class="st5" d="M273.2,51c0,0.2-0.2,0.4-0.4,0.4c-0.2,0-0.4-0.2-0.4-0.4c0-0.2,0.2-0.4,0.4-0.4C273,50.6,273.2,50.8,273.2,51
			z"/>
	</g>
</g>
<g>
	<ellipse class="st4" cx="372.3" cy="77.8" rx="18.8" ry="2.8"/>
	<g>
		<path class="st5" d="M394.9,20.4c-0.9-0.1-2,0.2-1.6,1.5c0.3,0.8-0.3,1.4-0.2,2.3c0.1,0.5,0.1,0.7,0,1.2c-0.1,0.4-0.2,0.8-0.1,1.2
			c0.1,0.5,0.2,0.7,0,1.1c-0.2,0.4-0.3,0.7-0.3,1.1c0,0.4,0.2,0.9,0.2,1.3c-0.1,0.4-0.3,0.7-0.2,1.2c0.1,1,1.2,1.2,2,1.1
			c2.5-0.3,3.6,0,5.2,0.1l0-11.7C398.2,20.7,396.6,20.6,394.9,20.4z"/>
		<path class="st6" d="M396.7,21.2c-0.6,0-2.6-0.3-2.1,0.7c-0.3,0.1-0.3,0.4-0.1,0.5c-0.3,0.1-0.3,0.5,0,0.7c0.2,0.1,2.3,0.5,3,0.5
			c-0.6,0.1-3.4-0.4-3.3,0.8c0,0.3,0.1,0.4,0,0.8c-0.1,0.3-0.1,0.5-0.1,0.8c0,0.3,0,0.4-0.1,0.7c-0.1,0.6,0.5,0.5,0.6,0.5
			c-0.2,0.1-0.5,0.1-0.6,0.3c-0.1,0.3,0,0.7-0.1,1c-0.1,0.3-0.2,0.8,0.1,1c0.3,0.2,2.1,0.2,2.4,0.3c-0.7,0.4-3,0.1-3,1.1
			c0,0.1,0,0.7,0.1,0.8c0.1,0.2,0.5,0.3,0.8,0.3c0.6,0,5.3,0.2,5.4,0.5l-0.3-11C398.6,21.2,397.6,21.2,396.7,21.2z"/>
		<g>
			<path class="st7" d="M385.7,53c0.9,0.7,2,0.9,3,1c1,0.1,2.1,0.1,3.1-0.1c1-0.2,2.1-0.5,3-1c1-0.5,1.9-1.1,2.6-2
				c0.4-0.5-0.4-1-0.8-0.5c-0.6,0.7-1.4,1.2-2.2,1.6c-0.8,0.4-1.7,0.7-2.7,0.9c-0.9,0.2-1.8,0.2-2.7,0.1c-1-0.1-2-0.3-2.7-0.9
				C385.8,51.8,385.2,52.7,385.7,53L385.7,53z"/>
		</g>
		<g>
			<path class="st7" d="M352.9,62.6c0-1.5-0.1-3.1,0.3-4.6c0.4-1.5,1.2-2.8,2.5-3.6c0.5-0.4,0-1.2-0.5-0.8c-1.4,1-2.5,2.4-2.9,4.1
				c-0.4,1.6-0.4,3.3-0.4,5C351.9,63.2,352.9,63.2,352.9,62.6L352.9,62.6z"/>
		</g>
		<path class="st6" d="M363.4,77.9c-2.4-0.1-4.5-0.5-5.8-4.5c-0.9-2.8-0.6-6-0.9-8.1c-0.3-2.1-2.8-8.5-3.1-13.7
			c-0.3-5.2,2.9-10.5,8.1-10.9c5.2-0.3,7.3,1.5,10,1.6c3.5,0.1,6.2-2,10.9-1.8c4.6,0.2,6.9,5.3,7.1,10.6c0.2,4.7-2.7,11.7-2.6,14.1
			c0.1,3.5-0.1,12.3-4,12.3c-4.5,0-5.5-6.4-6.8-7.7c-2.4-2.3-4.4-2.5-6.5-0.4C367.4,71.9,367.2,78,363.4,77.9z"/>
		<path class="st5" d="M364.6,43.2c-1.8-0.5-3.3,0.1-4.6,1.1c-1,0.6-2,1.7-2.4,2.5c-1,1.8-1.7,4.3-0.7,6.3c0.9,1.7,2.9,1.6,3.6-0.1
			c0.6-1.6,0.1-3.3,1.1-4.8c1-1.4,2.4-1.4,3.7-2.3C366.9,44.8,366,43.6,364.6,43.2z"/>
		<path class="st8" d="M389.8,51.1c-0.2-4.9-2.1-9.5-5.9-10.5c6.9,2.8,4.7,14,1.4,18.6c-0.9,1.3-2.3,1.5-4.1,2.8
			c-1.6,1.1,2.4,1.2,3.7,4.9c0.8,2.2,1.7,7.6-1.4,8.6c-1,0.3-2.4,0.4-3.4-0.1c-0.6-0.3-1.4-1-1.9-1.8c1,2,2.4,3.9,4.9,3.9
			c3.9,0,4.1-8.9,4-12.3C387.1,62.9,389.9,55.9,389.8,51.1z"/>
		<path class="st7" d="M367,50.4c0,0.6-0.5,1.1-1.1,1.1c-0.6,0-1.1-0.5-1.1-1.1c0-0.6,0.5-1.1,1.1-1.1C366.5,49.3,367,49.8,367,50.4
			z"/>
		<path class="st7" d="M382,48.8c0,0.6-0.5,1.1-1.1,1.1c-0.6,0-1.1-0.5-1.1-1.1c0-0.6,0.5-1.1,1.1-1.1C381.5,47.6,382,48.1,382,48.8
			z"/>
		<g>
			<path class="st7" d="M375.6,59c0,0-0.1,0-0.1,0c-1.9,0.1-3-0.7-3.7-1.4c-0.7-0.8-1-1.6-1-1.6c0-0.2,0-0.3,0.2-0.4
				c0.1-0.1,0.3,0,0.3,0.2c0,0.1,1,2.9,4.1,2.6c1.3-0.1,2-0.8,2.4-1.3c0.6-0.8,0.8-1.8,0.7-2.4c0-0.2,0.1-0.3,0.2-0.3
				c0.1,0,0.3,0.1,0.3,0.3c0.1,0.9-0.2,2-0.8,2.8C377.8,58.1,377,58.9,375.6,59z"/>
		</g>
		<path class="st7" d="M381.9,44.7c-0.5-0.4-1.6-0.8-2.3-0.5c-0.3,0.1-0.4,0.5,0,0.7c0.4,0.3,0.8,0,1.8,0.6c0.4,0.2,0.8,0.6,1.1,0.1
			C382.7,45.3,382.3,45,381.9,44.7z"/>
		<path class="st7" d="M362.4,46.7c0.4-0.5,1.5-1.1,2.2-0.8c0.3,0.1,0.4,0.4,0.1,0.7c-0.4,0.4-0.7,0.1-1.7,0.9
			c-0.3,0.3-0.7,0.7-1,0.2C361.7,47.4,362.1,47,362.4,46.7z"/>
		<path class="st7" d="M399.4,47.8c-1.1-0.8-1.8,0.3-2.2,1.2c0-0.3-0.1-0.8-0.5-0.8c-0.4,0-0.4,0.6-0.4,0.9c0,0.7,0.1,1.5-0.5,2.1
			l-0.9,1.2c1.2-0.8,2.6-0.9,3.7-1.7C399.4,50,400.6,48.6,399.4,47.8z"/>
		<path class="st7" d="M353.9,66.2c1.2-0.6,0.6-1.8,0-2.5c0.3,0.1,0.7,0.3,0.9-0.1c0.2-0.3-0.3-0.6-0.5-0.8
			c-0.7-0.3-1.3-0.7-1.6-1.4L352,60c0.1,1.4-0.4,2.7-0.3,4.1C351.9,65.1,352.5,66.8,353.9,66.2z"/>
		<path class="st9" d="M397.7,78.8c0,0-0.1,0.8-1.2,0.7c-0.8-0.1-1.1-0.8-1.1-0.8l3.5-57.1c0,0-0.1-1.4,1.2-1.4c0.9,0,1,1.5,1,1.5
			L397.7,78.8z"/>
		<path class="st10" d="M400.2,20.2c-0.1,0-0.2,0-0.2,0c0.5,0.4,0.6,1.3,0.6,1.3L397,78.6c0,0-0.1,0.7-0.9,0.7
			c0.1,0.1,0.3,0.1,0.4,0.1c1,0.1,1.2-0.7,1.2-0.7l3.5-57.1C401.2,21.7,401.1,20.2,400.2,20.2z"/>
	</g>
</g>
			</g>
		</g>
	</g>
</g>
<g id="RING-GROUP">
	
		<animateTransform  accumulate="none" additive="replace" attributeName="transform" attributeType="XML" 		calcMode="spline" dur="1.75s" fill="remove" 
		from="0 58.02 58.02" keySplines="0.4, 0, 0.2, 1" keyTimes="0;1" repeatCount="indefinite" restart="always" 
		to="360 58.02 58.02" type="rotate">
		</animateTransform>
	<path class="st11" d="M32.6,105.4c-17-9.2-28.5-27.2-28.3-47.8c0.2-17.4,8.5-32.8,21.4-42.5"/>
	<path class="st11" d="M58.5,4.7c1,0,2,0,3,0.1 M61.5,4.9c28,1.8,50,25.2,49.8,53.6c-0.2,18.7-9.9,35-24.5,44.4"/>
</g>

</svg>